<mxfile host="app.diagrams.net" agent="Mozilla/5.0 (Windows NT 10.0; Win64; x64) AppleWebKit/537.36 (KHTML, like Gecko) Chrome/130.0.0.0 Safari/537.36 OPR/115.0.0.0" version="25.0.3">
  <diagram name="Sayfa -1" id="FlLv5-s1ZG8_8sRX_iRL">
    <mxGraphModel grid="1" page="1" gridSize="10" guides="1" tooltips="1" connect="1" arrows="1" fold="1" pageScale="1" pageWidth="4681" pageHeight="3300" background="none" math="0" shadow="0">
      <root>
        <mxCell id="0" />
        <mxCell id="1" parent="0" />
        <mxCell id="48Z_cEJcumHdOvQf_AqQ-1" value="&lt;b&gt;USER&lt;/b&gt;" style="rounded=0;whiteSpace=wrap;html=1;strokeWidth=2;fillColor=#dae8fc;strokeColor=#6c8ebf;" vertex="1" parent="1">
          <mxGeometry x="1220" y="800" width="140" height="70" as="geometry" />
        </mxCell>
        <mxCell id="48Z_cEJcumHdOvQf_AqQ-7" value="d" style="ellipse;whiteSpace=wrap;html=1;aspect=fixed;fillColor=#f8cecc;strokeColor=#b85450;" vertex="1" parent="1">
          <mxGeometry x="1300" y="1030" width="40" height="40" as="geometry" />
        </mxCell>
        <mxCell id="48Z_cEJcumHdOvQf_AqQ-8" value="REGISTERED_&lt;div&gt;USER&lt;/div&gt;" style="rounded=0;whiteSpace=wrap;html=1;fillColor=#f8cecc;strokeColor=#b85450;" vertex="1" parent="1">
          <mxGeometry x="1580" y="1090" width="100" height="60" as="geometry" />
        </mxCell>
        <mxCell id="48Z_cEJcumHdOvQf_AqQ-9" value="Visitor" style="whiteSpace=wrap;html=1;fillColor=#f8cecc;strokeColor=#b85450;" vertex="1" parent="1">
          <mxGeometry x="1040" y="1010" width="120" height="60" as="geometry" />
        </mxCell>
        <mxCell id="48Z_cEJcumHdOvQf_AqQ-10" value="" style="endArrow=none;html=1;rounded=0;fillColor=#dae8fc;strokeColor=#6c8ebf;" edge="1" parent="1">
          <mxGeometry width="50" height="50" relative="1" as="geometry">
            <mxPoint x="1310" y="1030" as="sourcePoint" />
            <mxPoint x="1310" y="870" as="targetPoint" />
          </mxGeometry>
        </mxCell>
        <mxCell id="48Z_cEJcumHdOvQf_AqQ-12" value="" style="endArrow=none;html=1;rounded=0;exitX=0;exitY=0;exitDx=0;exitDy=0;fillColor=#dae8fc;strokeColor=#6c8ebf;" edge="1" parent="1" source="48Z_cEJcumHdOvQf_AqQ-8">
          <mxGeometry width="50" height="50" relative="1" as="geometry">
            <mxPoint x="1660" y="1090" as="sourcePoint" />
            <mxPoint x="1330" y="1055" as="targetPoint" />
            <Array as="points" />
          </mxGeometry>
        </mxCell>
        <mxCell id="48Z_cEJcumHdOvQf_AqQ-13" value="" style="endArrow=none;html=1;rounded=0;exitX=1;exitY=0.5;exitDx=0;exitDy=0;fillColor=#dae8fc;strokeColor=#6c8ebf;" edge="1" parent="1" source="48Z_cEJcumHdOvQf_AqQ-9">
          <mxGeometry width="50" height="50" relative="1" as="geometry">
            <mxPoint x="600.0000000000002" y="1040" as="sourcePoint" />
            <mxPoint x="1300" y="1040" as="targetPoint" />
          </mxGeometry>
        </mxCell>
        <mxCell id="48Z_cEJcumHdOvQf_AqQ-16" value="" style="shape=requiredInterface;html=1;verticalLabelPosition=bottom;sketch=0;direction=west;fillColor=#dae8fc;strokeColor=#6c8ebf;" vertex="1" parent="1">
          <mxGeometry x="1250" y="1010" width="20" height="50" as="geometry" />
        </mxCell>
        <mxCell id="48Z_cEJcumHdOvQf_AqQ-17" value="" style="shape=requiredInterface;html=1;verticalLabelPosition=bottom;sketch=0;fillColor=#dae8fc;strokeColor=#6c8ebf;" vertex="1" parent="1">
          <mxGeometry x="1480" y="1050" width="20" height="40" as="geometry" />
        </mxCell>
        <mxCell id="48Z_cEJcumHdOvQf_AqQ-18" value="" style="endArrow=none;html=1;rounded=0;entryX=0.75;entryY=1;entryDx=0;entryDy=0;fillColor=#dae8fc;strokeColor=#6c8ebf;" edge="1" parent="1" target="48Z_cEJcumHdOvQf_AqQ-1">
          <mxGeometry width="50" height="50" relative="1" as="geometry">
            <mxPoint x="1325" y="1030" as="sourcePoint" />
            <mxPoint x="1315" y="870" as="targetPoint" />
            <Array as="points" />
          </mxGeometry>
        </mxCell>
        <mxCell id="48Z_cEJcumHdOvQf_AqQ-19" value="" style="endArrow=none;html=1;rounded=0;entryX=0.346;entryY=1.001;entryDx=0;entryDy=0;entryPerimeter=0;fillColor=#dae8fc;strokeColor=#6c8ebf;" edge="1" parent="1" target="48Z_cEJcumHdOvQf_AqQ-8">
          <mxGeometry width="50" height="50" relative="1" as="geometry">
            <mxPoint x="1610" y="1210" as="sourcePoint" />
            <mxPoint x="1620" y="1160" as="targetPoint" />
          </mxGeometry>
        </mxCell>
        <mxCell id="48Z_cEJcumHdOvQf_AqQ-20" value="" style="endArrow=none;html=1;rounded=0;exitX=1;exitY=0;exitDx=0;exitDy=0;entryX=0.5;entryY=1;entryDx=0;entryDy=0;fillColor=#dae8fc;strokeColor=#6c8ebf;" edge="1" parent="1" source="48Z_cEJcumHdOvQf_AqQ-21" target="48Z_cEJcumHdOvQf_AqQ-8">
          <mxGeometry width="50" height="50" relative="1" as="geometry">
            <mxPoint x="1630" y="1200" as="sourcePoint" />
            <mxPoint x="1635" y="1160" as="targetPoint" />
          </mxGeometry>
        </mxCell>
        <mxCell id="48Z_cEJcumHdOvQf_AqQ-21" value="d" style="ellipse;whiteSpace=wrap;html=1;aspect=fixed;fillColor=#dae8fc;strokeColor=#6c8ebf;" vertex="1" parent="1">
          <mxGeometry x="1600" y="1200" width="30" height="30" as="geometry" />
        </mxCell>
        <mxCell id="48Z_cEJcumHdOvQf_AqQ-22" value="Standart" style="rounded=0;whiteSpace=wrap;html=1;fillColor=#dae8fc;strokeColor=#6c8ebf;" vertex="1" parent="1">
          <mxGeometry x="1680" y="1250" width="60" height="30" as="geometry" />
        </mxCell>
        <mxCell id="48Z_cEJcumHdOvQf_AqQ-23" value="Elite" style="rounded=0;whiteSpace=wrap;html=1;fillColor=#dae8fc;strokeColor=#6c8ebf;" vertex="1" parent="1">
          <mxGeometry x="1480" y="1250" width="70" height="30" as="geometry" />
        </mxCell>
        <mxCell id="48Z_cEJcumHdOvQf_AqQ-25" value="" style="endArrow=none;html=1;rounded=0;entryX=0.5;entryY=0;entryDx=0;entryDy=0;exitX=1;exitY=0.5;exitDx=0;exitDy=0;fillColor=#dae8fc;strokeColor=#6c8ebf;" edge="1" parent="1" source="48Z_cEJcumHdOvQf_AqQ-21" target="48Z_cEJcumHdOvQf_AqQ-22">
          <mxGeometry width="50" height="50" relative="1" as="geometry">
            <mxPoint x="1640" y="1230" as="sourcePoint" />
            <mxPoint x="1990" y="920" as="targetPoint" />
          </mxGeometry>
        </mxCell>
        <mxCell id="48Z_cEJcumHdOvQf_AqQ-32" value="" style="endArrow=none;html=1;rounded=0;exitX=0;exitY=0.5;exitDx=0;exitDy=0;entryX=0.5;entryY=0;entryDx=0;entryDy=0;fillColor=#dae8fc;strokeColor=#6c8ebf;" edge="1" parent="1" source="48Z_cEJcumHdOvQf_AqQ-21" target="48Z_cEJcumHdOvQf_AqQ-23">
          <mxGeometry width="50" height="50" relative="1" as="geometry">
            <mxPoint x="2036" y="964" as="sourcePoint" />
            <mxPoint x="2070" y="943.0961276947287" as="targetPoint" />
          </mxGeometry>
        </mxCell>
        <mxCell id="48Z_cEJcumHdOvQf_AqQ-39" value="" style="endArrow=none;html=1;rounded=0;fillColor=#dae8fc;strokeColor=#6c8ebf;entryX=0;entryY=0.25;entryDx=0;entryDy=0;" edge="1" parent="1" target="48Z_cEJcumHdOvQf_AqQ-1">
          <mxGeometry width="50" height="50" relative="1" as="geometry">
            <mxPoint x="1060" y="820" as="sourcePoint" />
            <mxPoint x="1210" y="820" as="targetPoint" />
          </mxGeometry>
        </mxCell>
        <mxCell id="48Z_cEJcumHdOvQf_AqQ-40" value="" style="endArrow=none;html=1;rounded=0;entryX=0.011;entryY=0.588;entryDx=0;entryDy=0;entryPerimeter=0;fillColor=#dae8fc;strokeColor=#6c8ebf;" edge="1" parent="1" target="48Z_cEJcumHdOvQf_AqQ-1">
          <mxGeometry width="50" height="50" relative="1" as="geometry">
            <mxPoint x="1060" y="840" as="sourcePoint" />
            <mxPoint x="1200" y="840" as="targetPoint" />
          </mxGeometry>
        </mxCell>
        <mxCell id="48Z_cEJcumHdOvQf_AqQ-44" value="NOTIFICATION_&lt;div&gt;PREFERENCE&lt;/div&gt;" style="shape=ext;margin=3;double=1;whiteSpace=wrap;html=1;align=center;fillColor=#dae8fc;strokeColor=#6c8ebf;" vertex="1" parent="1">
          <mxGeometry x="670" y="810" width="100" height="40" as="geometry" />
        </mxCell>
        <mxCell id="48Z_cEJcumHdOvQf_AqQ-45" value="BELOGNS_TO" style="shape=rhombus;double=1;perimeter=rhombusPerimeter;whiteSpace=wrap;html=1;align=center;fillColor=#dae8fc;strokeColor=#6c8ebf;" vertex="1" parent="1">
          <mxGeometry x="960" y="800" width="120" height="60" as="geometry" />
        </mxCell>
        <mxCell id="48Z_cEJcumHdOvQf_AqQ-47" value="" style="endArrow=none;html=1;rounded=0;exitX=1;exitY=0.75;exitDx=0;exitDy=0;entryX=0.193;entryY=0.686;entryDx=0;entryDy=0;entryPerimeter=0;fillColor=#dae8fc;strokeColor=#6c8ebf;" edge="1" parent="1" source="48Z_cEJcumHdOvQf_AqQ-44" target="48Z_cEJcumHdOvQf_AqQ-45">
          <mxGeometry width="50" height="50" relative="1" as="geometry">
            <mxPoint x="770" y="830" as="sourcePoint" />
            <mxPoint x="820" y="780" as="targetPoint" />
            <Array as="points">
              <mxPoint x="860" y="840" />
            </Array>
          </mxGeometry>
        </mxCell>
        <mxCell id="48Z_cEJcumHdOvQf_AqQ-48" value="" style="endArrow=none;html=1;rounded=0;exitX=1;exitY=0.25;exitDx=0;exitDy=0;entryX=0.151;entryY=0.325;entryDx=0;entryDy=0;entryPerimeter=0;fillColor=#dae8fc;strokeColor=#6c8ebf;" edge="1" parent="1" source="48Z_cEJcumHdOvQf_AqQ-44" target="48Z_cEJcumHdOvQf_AqQ-45">
          <mxGeometry width="50" height="50" relative="1" as="geometry">
            <mxPoint x="810" y="830" as="sourcePoint" />
            <mxPoint x="860" y="780" as="targetPoint" />
            <Array as="points">
              <mxPoint x="870" y="820" />
            </Array>
          </mxGeometry>
        </mxCell>
        <mxCell id="48Z_cEJcumHdOvQf_AqQ-49" value="U" style="ellipse;whiteSpace=wrap;html=1;aspect=fixed;fillColor=#dae8fc;strokeColor=#6c8ebf;" vertex="1" parent="1">
          <mxGeometry x="1590" y="1390" width="40" height="40" as="geometry" />
        </mxCell>
        <mxCell id="48Z_cEJcumHdOvQf_AqQ-50" value="" style="endArrow=none;html=1;rounded=0;entryX=0.5;entryY=1;entryDx=0;entryDy=0;exitX=0;exitY=0;exitDx=0;exitDy=0;fillColor=#dae8fc;strokeColor=#6c8ebf;" edge="1" parent="1" source="48Z_cEJcumHdOvQf_AqQ-49" target="48Z_cEJcumHdOvQf_AqQ-23">
          <mxGeometry width="50" height="50" relative="1" as="geometry">
            <mxPoint x="1525" y="1360" as="sourcePoint" />
            <mxPoint x="1575" y="1310" as="targetPoint" />
          </mxGeometry>
        </mxCell>
        <mxCell id="48Z_cEJcumHdOvQf_AqQ-51" value="" style="endArrow=none;html=1;rounded=0;exitX=1;exitY=0;exitDx=0;exitDy=0;fillColor=#dae8fc;strokeColor=#6c8ebf;" edge="1" parent="1" source="48Z_cEJcumHdOvQf_AqQ-49">
          <mxGeometry width="50" height="50" relative="1" as="geometry">
            <mxPoint x="1660" y="1330" as="sourcePoint" />
            <mxPoint x="1710" y="1280" as="targetPoint" />
          </mxGeometry>
        </mxCell>
        <mxCell id="48Z_cEJcumHdOvQf_AqQ-52" value="Seller" style="html=1;dashed=0;whiteSpace=wrap;fillColor=#dae8fc;strokeColor=#6c8ebf;" vertex="1" parent="1">
          <mxGeometry x="1250" y="1490" width="80" height="30" as="geometry" />
        </mxCell>
        <mxCell id="48Z_cEJcumHdOvQf_AqQ-53" value="Cloud_User" style="html=1;dashed=0;whiteSpace=wrap;fillColor=#dae8fc;strokeColor=#6c8ebf;" vertex="1" parent="1">
          <mxGeometry x="1450" y="1520" width="80" height="30" as="geometry" />
        </mxCell>
        <mxCell id="48Z_cEJcumHdOvQf_AqQ-54" value="Digital_Content&lt;div&gt;__User&lt;/div&gt;" style="html=1;dashed=0;whiteSpace=wrap;fillColor=#dae8fc;strokeColor=#6c8ebf;" vertex="1" parent="1">
          <mxGeometry x="1750" y="1390" width="90" height="25" as="geometry" />
        </mxCell>
        <mxCell id="48Z_cEJcumHdOvQf_AqQ-55" value="Buyer" style="html=1;dashed=0;whiteSpace=wrap;fillColor=#dae8fc;strokeColor=#6c8ebf;" vertex="1" parent="1">
          <mxGeometry x="1630" y="1520" width="90" height="30" as="geometry" />
        </mxCell>
        <mxCell id="48Z_cEJcumHdOvQf_AqQ-56" value="" style="endArrow=none;html=1;rounded=0;exitX=0.5;exitY=0;exitDx=0;exitDy=0;fillColor=#dae8fc;strokeColor=#6c8ebf;" edge="1" parent="1" source="48Z_cEJcumHdOvQf_AqQ-52">
          <mxGeometry width="50" height="50" relative="1" as="geometry">
            <mxPoint x="1320.0000000000002" y="1520" as="sourcePoint" />
            <mxPoint x="1590" y="1420" as="targetPoint" />
          </mxGeometry>
        </mxCell>
        <mxCell id="48Z_cEJcumHdOvQf_AqQ-57" value="" style="endArrow=none;html=1;rounded=0;exitX=0.5;exitY=0;exitDx=0;exitDy=0;fillColor=#dae8fc;strokeColor=#6c8ebf;" edge="1" parent="1" source="48Z_cEJcumHdOvQf_AqQ-53">
          <mxGeometry width="50" height="50" relative="1" as="geometry">
            <mxPoint x="1550" y="1480" as="sourcePoint" />
            <mxPoint x="1600" y="1430" as="targetPoint" />
          </mxGeometry>
        </mxCell>
        <mxCell id="48Z_cEJcumHdOvQf_AqQ-58" value="" style="endArrow=none;html=1;rounded=0;entryX=1;entryY=1;entryDx=0;entryDy=0;exitX=0.5;exitY=0;exitDx=0;exitDy=0;fillColor=#dae8fc;strokeColor=#6c8ebf;" edge="1" parent="1" source="48Z_cEJcumHdOvQf_AqQ-55" target="48Z_cEJcumHdOvQf_AqQ-49">
          <mxGeometry width="50" height="50" relative="1" as="geometry">
            <mxPoint x="1660" y="1480" as="sourcePoint" />
            <mxPoint x="1660" y="1430" as="targetPoint" />
          </mxGeometry>
        </mxCell>
        <mxCell id="48Z_cEJcumHdOvQf_AqQ-59" value="" style="endArrow=none;html=1;rounded=0;entryX=0.895;entryY=0.702;entryDx=0;entryDy=0;entryPerimeter=0;exitX=0;exitY=0.5;exitDx=0;exitDy=0;fillColor=#dae8fc;strokeColor=#6c8ebf;" edge="1" parent="1" source="48Z_cEJcumHdOvQf_AqQ-54" target="48Z_cEJcumHdOvQf_AqQ-49">
          <mxGeometry width="50" height="50" relative="1" as="geometry">
            <mxPoint x="1745" y="1460" as="sourcePoint" />
            <mxPoint x="1795" y="1410" as="targetPoint" />
          </mxGeometry>
        </mxCell>
        <mxCell id="48Z_cEJcumHdOvQf_AqQ-60" value="" style="shape=requiredInterface;html=1;verticalLabelPosition=bottom;sketch=0;direction=south;fillColor=#dae8fc;strokeColor=#6c8ebf;" vertex="1" parent="1">
          <mxGeometry x="1530" y="1470" width="30" height="20" as="geometry" />
        </mxCell>
        <mxCell id="48Z_cEJcumHdOvQf_AqQ-61" value="" style="shape=requiredInterface;html=1;verticalLabelPosition=bottom;sketch=0;direction=south;fillColor=#dae8fc;strokeColor=#6c8ebf;" vertex="1" parent="1">
          <mxGeometry x="1440" y="1440" width="20" height="20" as="geometry" />
        </mxCell>
        <mxCell id="48Z_cEJcumHdOvQf_AqQ-62" value="" style="shape=requiredInterface;html=1;verticalLabelPosition=bottom;sketch=0;direction=south;fillColor=#dae8fc;strokeColor=#6c8ebf;" vertex="1" parent="1">
          <mxGeometry x="1640" y="1480" width="30" height="10" as="geometry" />
        </mxCell>
        <mxCell id="48Z_cEJcumHdOvQf_AqQ-63" value="" style="shape=requiredInterface;html=1;verticalLabelPosition=bottom;sketch=0;fillColor=#dae8fc;strokeColor=#6c8ebf;" vertex="1" parent="1">
          <mxGeometry x="1710" y="1385" width="10" height="30" as="geometry" />
        </mxCell>
        <mxCell id="48Z_cEJcumHdOvQf_AqQ-64" value="VIEW" style="rhombus;whiteSpace=wrap;html=1;fillColor=#f8cecc;strokeColor=#b85450;" vertex="1" parent="1">
          <mxGeometry x="850" y="1010" width="80" height="80" as="geometry" />
        </mxCell>
        <mxCell id="48Z_cEJcumHdOvQf_AqQ-65" value="" style="endArrow=none;html=1;rounded=0;exitX=0;exitY=0.25;exitDx=0;exitDy=0;entryX=1;entryY=0;entryDx=0;entryDy=0;fillColor=#dae8fc;strokeColor=#6c8ebf;" edge="1" parent="1" source="48Z_cEJcumHdOvQf_AqQ-9" target="48Z_cEJcumHdOvQf_AqQ-64">
          <mxGeometry width="50" height="50" relative="1" as="geometry">
            <mxPoint x="740" y="1060" as="sourcePoint" />
            <mxPoint x="790" y="1010" as="targetPoint" />
          </mxGeometry>
        </mxCell>
        <mxCell id="48Z_cEJcumHdOvQf_AqQ-66" value="" style="endArrow=none;html=1;rounded=0;exitX=0.5;exitY=0;exitDx=0;exitDy=0;fillColor=#dae8fc;strokeColor=#6c8ebf;" edge="1" parent="1" source="48Z_cEJcumHdOvQf_AqQ-64" target="48Z_cEJcumHdOvQf_AqQ-67">
          <mxGeometry width="50" height="50" relative="1" as="geometry">
            <mxPoint x="800" y="930" as="sourcePoint" />
            <mxPoint x="810" y="850" as="targetPoint" />
          </mxGeometry>
        </mxCell>
        <mxCell id="48Z_cEJcumHdOvQf_AqQ-67" value="PAGE" style="rounded=0;whiteSpace=wrap;html=1;fillColor=#f8cecc;strokeColor=#b85450;" vertex="1" parent="1">
          <mxGeometry x="855" y="900" width="70" height="30" as="geometry" />
        </mxCell>
        <mxCell id="48Z_cEJcumHdOvQf_AqQ-75" value="HAS" style="rhombus;whiteSpace=wrap;html=1;fillColor=#dae8fc;strokeColor=#6c8ebf;" vertex="1" parent="1">
          <mxGeometry x="1900" y="1390" width="80" height="80" as="geometry" />
        </mxCell>
        <mxCell id="48Z_cEJcumHdOvQf_AqQ-76" value="" style="endArrow=none;html=1;rounded=0;exitX=0.57;exitY=0.043;exitDx=0;exitDy=0;exitPerimeter=0;entryX=0;entryY=0.333;entryDx=0;entryDy=0;entryPerimeter=0;fillColor=#dae8fc;strokeColor=#6c8ebf;" edge="1" parent="1" source="48Z_cEJcumHdOvQf_AqQ-75" target="48Z_cEJcumHdOvQf_AqQ-78">
          <mxGeometry width="50" height="50" relative="1" as="geometry">
            <mxPoint x="1930" y="1100" as="sourcePoint" />
            <mxPoint x="2090" y="1110" as="targetPoint" />
            <Array as="points" />
          </mxGeometry>
        </mxCell>
        <mxCell id="48Z_cEJcumHdOvQf_AqQ-78" value="PAYMENT_METHOD" style="rounded=0;whiteSpace=wrap;html=1;fillColor=#dae8fc;strokeColor=#6c8ebf;" vertex="1" parent="1">
          <mxGeometry x="2150" y="1090" width="120" height="60" as="geometry" />
        </mxCell>
        <mxCell id="48Z_cEJcumHdOvQf_AqQ-79" value="d" style="ellipse;whiteSpace=wrap;html=1;aspect=fixed;fillColor=#dae8fc;strokeColor=#6c8ebf;" vertex="1" parent="1">
          <mxGeometry x="2190" y="970" width="40" height="40" as="geometry" />
        </mxCell>
        <mxCell id="48Z_cEJcumHdOvQf_AqQ-81" value="" style="endArrow=none;html=1;rounded=0;entryX=0;entryY=1;entryDx=0;entryDy=0;fillColor=#dae8fc;strokeColor=#6c8ebf;" edge="1" parent="1" target="48Z_cEJcumHdOvQf_AqQ-79">
          <mxGeometry width="50" height="50" relative="1" as="geometry">
            <mxPoint x="2196" y="1088" as="sourcePoint" />
            <mxPoint x="2250" y="1045" as="targetPoint" />
          </mxGeometry>
        </mxCell>
        <mxCell id="48Z_cEJcumHdOvQf_AqQ-82" value="" style="endArrow=none;html=1;rounded=0;entryX=1;entryY=1;entryDx=0;entryDy=0;exitX=0.614;exitY=-0.019;exitDx=0;exitDy=0;exitPerimeter=0;fillColor=#dae8fc;strokeColor=#6c8ebf;" edge="1" parent="1" source="48Z_cEJcumHdOvQf_AqQ-78" target="48Z_cEJcumHdOvQf_AqQ-79">
          <mxGeometry width="50" height="50" relative="1" as="geometry">
            <mxPoint x="2226" y="1090" as="sourcePoint" />
            <mxPoint x="2270" y="1040" as="targetPoint" />
          </mxGeometry>
        </mxCell>
        <mxCell id="48Z_cEJcumHdOvQf_AqQ-83" value="CREDIT_&lt;div&gt;CARD&lt;/div&gt;" style="rounded=0;whiteSpace=wrap;html=1;fillColor=#dae8fc;strokeColor=#6c8ebf;" vertex="1" parent="1">
          <mxGeometry x="1970" y="880" width="60" height="30" as="geometry" />
        </mxCell>
        <mxCell id="48Z_cEJcumHdOvQf_AqQ-84" value="Debit_Card" style="rounded=0;whiteSpace=wrap;html=1;fillColor=#dae8fc;strokeColor=#6c8ebf;" vertex="1" parent="1">
          <mxGeometry x="2080" y="880" width="80" height="30" as="geometry" />
        </mxCell>
        <mxCell id="48Z_cEJcumHdOvQf_AqQ-85" value="Google_Pay" style="rounded=0;whiteSpace=wrap;html=1;fillColor=#dae8fc;strokeColor=#6c8ebf;" vertex="1" parent="1">
          <mxGeometry x="2200" y="880" width="80" height="30" as="geometry" />
        </mxCell>
        <mxCell id="48Z_cEJcumHdOvQf_AqQ-86" value="Wallet" style="rounded=0;whiteSpace=wrap;html=1;fillColor=#dae8fc;strokeColor=#6c8ebf;" vertex="1" parent="1">
          <mxGeometry x="2320" y="880" width="70" height="30" as="geometry" />
        </mxCell>
        <mxCell id="48Z_cEJcumHdOvQf_AqQ-87" value="" style="endArrow=none;html=1;rounded=0;exitX=0.5;exitY=1;exitDx=0;exitDy=0;entryX=0;entryY=0.5;entryDx=0;entryDy=0;fillColor=#dae8fc;strokeColor=#6c8ebf;" edge="1" parent="1" source="48Z_cEJcumHdOvQf_AqQ-83" target="48Z_cEJcumHdOvQf_AqQ-79">
          <mxGeometry width="50" height="50" relative="1" as="geometry">
            <mxPoint x="2150" y="1030" as="sourcePoint" />
            <mxPoint x="2190" y="970" as="targetPoint" />
          </mxGeometry>
        </mxCell>
        <mxCell id="48Z_cEJcumHdOvQf_AqQ-88" value="" style="endArrow=none;html=1;rounded=0;exitX=0.59;exitY=1.058;exitDx=0;exitDy=0;exitPerimeter=0;entryX=0;entryY=0;entryDx=0;entryDy=0;fillColor=#dae8fc;strokeColor=#6c8ebf;" edge="1" parent="1" source="48Z_cEJcumHdOvQf_AqQ-84" target="48Z_cEJcumHdOvQf_AqQ-79">
          <mxGeometry width="50" height="50" relative="1" as="geometry">
            <mxPoint x="2150" y="1030" as="sourcePoint" />
            <mxPoint x="2200" y="980" as="targetPoint" />
          </mxGeometry>
        </mxCell>
        <mxCell id="48Z_cEJcumHdOvQf_AqQ-89" value="" style="endArrow=none;html=1;rounded=0;exitX=0.25;exitY=1;exitDx=0;exitDy=0;entryX=0.67;entryY=0.087;entryDx=0;entryDy=0;entryPerimeter=0;fillColor=#dae8fc;strokeColor=#6c8ebf;" edge="1" parent="1" source="48Z_cEJcumHdOvQf_AqQ-85" target="48Z_cEJcumHdOvQf_AqQ-79">
          <mxGeometry width="50" height="50" relative="1" as="geometry">
            <mxPoint x="2150" y="1030" as="sourcePoint" />
            <mxPoint x="2220" y="970" as="targetPoint" />
          </mxGeometry>
        </mxCell>
        <mxCell id="48Z_cEJcumHdOvQf_AqQ-90" value="" style="endArrow=none;html=1;rounded=0;exitX=0.5;exitY=1;exitDx=0;exitDy=0;entryX=1;entryY=0.25;entryDx=0;entryDy=0;entryPerimeter=0;fillColor=#dae8fc;strokeColor=#6c8ebf;" edge="1" parent="1" source="48Z_cEJcumHdOvQf_AqQ-86" target="48Z_cEJcumHdOvQf_AqQ-79">
          <mxGeometry width="50" height="50" relative="1" as="geometry">
            <mxPoint x="2150" y="1030" as="sourcePoint" />
            <mxPoint x="2200" y="980" as="targetPoint" />
          </mxGeometry>
        </mxCell>
        <mxCell id="48Z_cEJcumHdOvQf_AqQ-91" value="" style="shape=requiredInterface;html=1;verticalLabelPosition=bottom;sketch=0;fillColor=#dae8fc;strokeColor=#6c8ebf;" vertex="1" parent="1">
          <mxGeometry x="2140" y="960" width="10" height="20" as="geometry" />
        </mxCell>
        <mxCell id="48Z_cEJcumHdOvQf_AqQ-92" value="" style="shape=requiredInterface;html=1;verticalLabelPosition=bottom;sketch=0;fillColor=#dae8fc;strokeColor=#6c8ebf;" vertex="1" parent="1">
          <mxGeometry x="2170" y="940" width="10" height="30" as="geometry" />
        </mxCell>
        <mxCell id="48Z_cEJcumHdOvQf_AqQ-93" value="" style="shape=requiredInterface;html=1;verticalLabelPosition=bottom;sketch=0;direction=south;fillColor=#dae8fc;strokeColor=#6c8ebf;" vertex="1" parent="1">
          <mxGeometry x="2210" y="940" width="20" height="10" as="geometry" />
        </mxCell>
        <mxCell id="48Z_cEJcumHdOvQf_AqQ-94" value="" style="shape=requiredInterface;html=1;verticalLabelPosition=bottom;sketch=0;direction=west;fillColor=#dae8fc;strokeColor=#6c8ebf;" vertex="1" parent="1">
          <mxGeometry x="2260" y="950" width="10" height="20" as="geometry" />
        </mxCell>
        <mxCell id="48Z_cEJcumHdOvQf_AqQ-105" value="" style="endArrow=none;html=1;rounded=0;exitX=0.5;exitY=0;exitDx=0;exitDy=0;fillColor=#dae8fc;strokeColor=#6c8ebf;" edge="1" parent="1" source="48Z_cEJcumHdOvQf_AqQ-120">
          <mxGeometry width="50" height="50" relative="1" as="geometry">
            <mxPoint x="1290" y="1680" as="sourcePoint" />
            <mxPoint x="1290" y="1520" as="targetPoint" />
          </mxGeometry>
        </mxCell>
        <mxCell id="48Z_cEJcumHdOvQf_AqQ-108" value="" style="endArrow=none;html=1;rounded=0;exitX=0.25;exitY=0;exitDx=0;exitDy=0;entryX=0.5;entryY=1;entryDx=0;entryDy=0;fillColor=#dae8fc;strokeColor=#6c8ebf;" edge="1" parent="1" source="48Z_cEJcumHdOvQf_AqQ-122" target="48Z_cEJcumHdOvQf_AqQ-120">
          <mxGeometry width="50" height="50" relative="1" as="geometry">
            <mxPoint x="1380" y="1870" as="sourcePoint" />
            <mxPoint x="1379.47" y="1770" as="targetPoint" />
          </mxGeometry>
        </mxCell>
        <mxCell id="48Z_cEJcumHdOvQf_AqQ-117" value="" style="endArrow=none;html=1;rounded=0;entryX=0;entryY=0.75;entryDx=0;entryDy=0;fillColor=#dae8fc;strokeColor=#6c8ebf;" edge="1" parent="1" source="48Z_cEJcumHdOvQf_AqQ-75" target="48Z_cEJcumHdOvQf_AqQ-78">
          <mxGeometry width="50" height="50" relative="1" as="geometry">
            <mxPoint x="2040" y="1360" as="sourcePoint" />
            <mxPoint x="2090" y="1310" as="targetPoint" />
          </mxGeometry>
        </mxCell>
        <mxCell id="48Z_cEJcumHdOvQf_AqQ-118" value="" style="endArrow=none;html=1;rounded=0;exitX=1;exitY=0.5;exitDx=0;exitDy=0;entryX=0;entryY=1;entryDx=0;entryDy=0;fillColor=#dae8fc;strokeColor=#6c8ebf;" edge="1" parent="1" source="48Z_cEJcumHdOvQf_AqQ-55" target="48Z_cEJcumHdOvQf_AqQ-75">
          <mxGeometry width="50" height="50" relative="1" as="geometry">
            <mxPoint x="1860" y="1410" as="sourcePoint" />
            <mxPoint x="1910" y="1360" as="targetPoint" />
          </mxGeometry>
        </mxCell>
        <mxCell id="48Z_cEJcumHdOvQf_AqQ-120" value="Has" style="shape=rhombus;double=1;perimeter=rhombusPerimeter;whiteSpace=wrap;html=1;align=center;fillColor=#dae8fc;strokeColor=#6c8ebf;" vertex="1" parent="1">
          <mxGeometry x="1240" y="1710" width="120" height="60" as="geometry" />
        </mxCell>
        <mxCell id="48Z_cEJcumHdOvQf_AqQ-122" value="STORE" style="shape=ext;margin=3;double=1;whiteSpace=wrap;html=1;align=center;fillColor=#dae8fc;strokeColor=#6c8ebf;" vertex="1" parent="1">
          <mxGeometry x="1360" y="1920" width="100" height="40" as="geometry" />
        </mxCell>
        <mxCell id="48Z_cEJcumHdOvQf_AqQ-123" value="PRODUCT" style="rounded=0;whiteSpace=wrap;html=1;fillColor=#dae8fc;strokeColor=#6c8ebf;" vertex="1" parent="1">
          <mxGeometry x="1870" y="2000" width="120" height="60" as="geometry" />
        </mxCell>
        <mxCell id="48Z_cEJcumHdOvQf_AqQ-125" value="HAS" style="rhombus;whiteSpace=wrap;html=1;fillColor=#dae8fc;strokeColor=#6c8ebf;" vertex="1" parent="1">
          <mxGeometry x="1520" y="1990" width="80" height="80" as="geometry" />
        </mxCell>
        <mxCell id="48Z_cEJcumHdOvQf_AqQ-126" value="" style="endArrow=none;html=1;rounded=0;exitX=1;exitY=0.5;exitDx=0;exitDy=0;entryX=0;entryY=0.5;entryDx=0;entryDy=0;fillColor=#dae8fc;strokeColor=#6c8ebf;" edge="1" parent="1" source="48Z_cEJcumHdOvQf_AqQ-125" target="48Z_cEJcumHdOvQf_AqQ-123">
          <mxGeometry width="50" height="50" relative="1" as="geometry">
            <mxPoint x="1710" y="1880" as="sourcePoint" />
            <mxPoint x="1870" y="2040" as="targetPoint" />
          </mxGeometry>
        </mxCell>
        <mxCell id="48Z_cEJcumHdOvQf_AqQ-127" value="" style="endArrow=none;html=1;rounded=0;exitX=1;exitY=0.25;exitDx=0;exitDy=0;entryX=0.35;entryY=0.169;entryDx=0;entryDy=0;entryPerimeter=0;fillColor=#dae8fc;strokeColor=#6c8ebf;" edge="1" parent="1" source="48Z_cEJcumHdOvQf_AqQ-122" target="48Z_cEJcumHdOvQf_AqQ-125">
          <mxGeometry width="50" height="50" relative="1" as="geometry">
            <mxPoint x="1440" y="1970" as="sourcePoint" />
            <mxPoint x="1617.7600000000002" y="1880.8800000000006" as="targetPoint" />
            <Array as="points" />
          </mxGeometry>
        </mxCell>
        <mxCell id="48Z_cEJcumHdOvQf_AqQ-129" value="FOLLOWS" style="rhombus;whiteSpace=wrap;html=1;fillColor=#dae8fc;strokeColor=#6c8ebf;" vertex="1" parent="1">
          <mxGeometry x="1530" y="1670" width="80" height="80" as="geometry" />
        </mxCell>
        <mxCell id="48Z_cEJcumHdOvQf_AqQ-130" value="" style="endArrow=none;html=1;rounded=0;entryX=0.5;entryY=1;entryDx=0;entryDy=0;exitX=1;exitY=0;exitDx=0;exitDy=0;fillColor=#dae8fc;strokeColor=#6c8ebf;" edge="1" parent="1" source="48Z_cEJcumHdOvQf_AqQ-129" target="48Z_cEJcumHdOvQf_AqQ-55">
          <mxGeometry width="50" height="50" relative="1" as="geometry">
            <mxPoint x="1610" y="1700" as="sourcePoint" />
            <mxPoint x="1660" y="1650" as="targetPoint" />
          </mxGeometry>
        </mxCell>
        <mxCell id="48Z_cEJcumHdOvQf_AqQ-131" value="" style="endArrow=none;html=1;rounded=0;exitX=0.75;exitY=0;exitDx=0;exitDy=0;entryX=0;entryY=1;entryDx=0;entryDy=0;fillColor=#dae8fc;strokeColor=#6c8ebf;" edge="1" parent="1" source="48Z_cEJcumHdOvQf_AqQ-122" target="48Z_cEJcumHdOvQf_AqQ-129">
          <mxGeometry width="50" height="50" relative="1" as="geometry">
            <mxPoint x="1610" y="1700" as="sourcePoint" />
            <mxPoint x="1660" y="1650" as="targetPoint" />
          </mxGeometry>
        </mxCell>
        <mxCell id="48Z_cEJcumHdOvQf_AqQ-132" value="" style="endArrow=none;html=1;rounded=0;exitX=1;exitY=0.75;exitDx=0;exitDy=0;entryX=0;entryY=0;entryDx=0;entryDy=0;fillColor=#dae8fc;strokeColor=#6c8ebf;" edge="1" parent="1" source="48Z_cEJcumHdOvQf_AqQ-122" target="48Z_cEJcumHdOvQf_AqQ-125">
          <mxGeometry width="50" height="50" relative="1" as="geometry">
            <mxPoint x="1500" y="1990" as="sourcePoint" />
            <mxPoint x="1550" y="1940" as="targetPoint" />
          </mxGeometry>
        </mxCell>
        <mxCell id="48Z_cEJcumHdOvQf_AqQ-134" value="Favorites" style="rhombus;whiteSpace=wrap;html=1;fillColor=#dae8fc;strokeColor=#6c8ebf;" vertex="1" parent="1">
          <mxGeometry x="1860" y="1780" width="80" height="80" as="geometry" />
        </mxCell>
        <mxCell id="48Z_cEJcumHdOvQf_AqQ-135" value="" style="endArrow=none;html=1;rounded=0;entryX=0.889;entryY=0.973;entryDx=0;entryDy=0;entryPerimeter=0;fillColor=#dae8fc;strokeColor=#6c8ebf;" edge="1" parent="1" source="48Z_cEJcumHdOvQf_AqQ-134" target="48Z_cEJcumHdOvQf_AqQ-55">
          <mxGeometry width="50" height="50" relative="1" as="geometry">
            <mxPoint x="1720" y="1860" as="sourcePoint" />
            <mxPoint x="1770" y="1810" as="targetPoint" />
          </mxGeometry>
        </mxCell>
        <mxCell id="48Z_cEJcumHdOvQf_AqQ-136" value="" style="endArrow=none;html=1;rounded=0;exitX=0.5;exitY=0;exitDx=0;exitDy=0;entryX=1;entryY=1;entryDx=0;entryDy=0;fillColor=#dae8fc;strokeColor=#6c8ebf;" edge="1" parent="1" source="48Z_cEJcumHdOvQf_AqQ-123" target="48Z_cEJcumHdOvQf_AqQ-134">
          <mxGeometry width="50" height="50" relative="1" as="geometry">
            <mxPoint x="1720" y="1860" as="sourcePoint" />
            <mxPoint x="1770" y="1810" as="targetPoint" />
          </mxGeometry>
        </mxCell>
        <mxCell id="48Z_cEJcumHdOvQf_AqQ-137" value="BELONGS_TO" style="rhombus;whiteSpace=wrap;html=1;fillColor=#dae8fc;strokeColor=#6c8ebf;" vertex="1" parent="1">
          <mxGeometry x="1885" y="2130" width="90" height="80" as="geometry" />
        </mxCell>
        <mxCell id="48Z_cEJcumHdOvQf_AqQ-138" value="" style="endArrow=none;html=1;rounded=0;entryX=0.5;entryY=1;entryDx=0;entryDy=0;exitX=0.5;exitY=0;exitDx=0;exitDy=0;" edge="1" parent="1" source="48Z_cEJcumHdOvQf_AqQ-137" target="48Z_cEJcumHdOvQf_AqQ-123">
          <mxGeometry width="50" height="50" relative="1" as="geometry">
            <mxPoint x="1810" y="2180" as="sourcePoint" />
            <mxPoint x="1860" y="2130" as="targetPoint" />
          </mxGeometry>
        </mxCell>
        <mxCell id="48Z_cEJcumHdOvQf_AqQ-139" value="CATEGORY" style="rounded=0;whiteSpace=wrap;html=1;fillColor=#dae8fc;strokeColor=#6c8ebf;" vertex="1" parent="1">
          <mxGeometry x="1870" y="2250" width="120" height="60" as="geometry" />
        </mxCell>
        <mxCell id="48Z_cEJcumHdOvQf_AqQ-140" value="" style="endArrow=none;html=1;rounded=0;exitX=0.5;exitY=0;exitDx=0;exitDy=0;entryX=0.5;entryY=1;entryDx=0;entryDy=0;" edge="1" parent="1" source="48Z_cEJcumHdOvQf_AqQ-139" target="48Z_cEJcumHdOvQf_AqQ-137">
          <mxGeometry width="50" height="50" relative="1" as="geometry">
            <mxPoint x="1840" y="2280" as="sourcePoint" />
            <mxPoint x="1890" y="2230" as="targetPoint" />
          </mxGeometry>
        </mxCell>
        <mxCell id="48Z_cEJcumHdOvQf_AqQ-141" value="SUB&lt;div&gt;CATEGORY&lt;/div&gt;" style="rhombus;whiteSpace=wrap;html=1;fillColor=#dae8fc;strokeColor=#6c8ebf;" vertex="1" parent="1">
          <mxGeometry x="1895" y="2360" width="80" height="80" as="geometry" />
        </mxCell>
        <mxCell id="48Z_cEJcumHdOvQf_AqQ-143" value="" style="endArrow=none;html=1;rounded=0;exitX=0;exitY=1;exitDx=0;exitDy=0;entryX=0;entryY=0.5;entryDx=0;entryDy=0;" edge="1" parent="1" source="48Z_cEJcumHdOvQf_AqQ-139" target="48Z_cEJcumHdOvQf_AqQ-141">
          <mxGeometry width="50" height="50" relative="1" as="geometry">
            <mxPoint x="1910" y="2680" as="sourcePoint" />
            <mxPoint x="1890" y="2390" as="targetPoint" />
          </mxGeometry>
        </mxCell>
        <mxCell id="48Z_cEJcumHdOvQf_AqQ-144" value="" style="endArrow=none;html=1;rounded=0;entryX=1;entryY=0.5;entryDx=0;entryDy=0;exitX=1;exitY=1;exitDx=0;exitDy=0;" edge="1" parent="1" source="48Z_cEJcumHdOvQf_AqQ-139" target="48Z_cEJcumHdOvQf_AqQ-141">
          <mxGeometry width="50" height="50" relative="1" as="geometry">
            <mxPoint x="1960" y="2680" as="sourcePoint" />
            <mxPoint x="1880" y="2440" as="targetPoint" />
          </mxGeometry>
        </mxCell>
        <mxCell id="48Z_cEJcumHdOvQf_AqQ-145" value="REVIEW" style="rounded=0;whiteSpace=wrap;html=1;fillColor=#dae8fc;strokeColor=#6c8ebf;" vertex="1" parent="1">
          <mxGeometry x="1020" y="1870" width="120" height="60" as="geometry" />
        </mxCell>
        <mxCell id="48Z_cEJcumHdOvQf_AqQ-146" value="SELLER_REVIEW" style="rounded=0;whiteSpace=wrap;html=1;fillColor=#dae8fc;strokeColor=#6c8ebf;" vertex="1" parent="1">
          <mxGeometry x="925" y="2160" width="120" height="60" as="geometry" />
        </mxCell>
        <mxCell id="48Z_cEJcumHdOvQf_AqQ-147" value="PRODUCT_REVIEW" style="rounded=0;whiteSpace=wrap;html=1;fillColor=#dae8fc;strokeColor=#6c8ebf;" vertex="1" parent="1">
          <mxGeometry x="1120" y="2160" width="120" height="60" as="geometry" />
        </mxCell>
        <mxCell id="48Z_cEJcumHdOvQf_AqQ-148" value="" style="endArrow=none;html=1;rounded=0;entryX=0.386;entryY=1.043;entryDx=0;entryDy=0;entryPerimeter=0;fillColor=#dae8fc;strokeColor=#6c8ebf;" edge="1" parent="1" target="48Z_cEJcumHdOvQf_AqQ-145">
          <mxGeometry width="50" height="50" relative="1" as="geometry">
            <mxPoint x="1066" y="2040" as="sourcePoint" />
            <mxPoint x="1090" y="2070" as="targetPoint" />
          </mxGeometry>
        </mxCell>
        <mxCell id="48Z_cEJcumHdOvQf_AqQ-149" value="" style="endArrow=none;html=1;rounded=0;entryX=0.611;entryY=1.043;entryDx=0;entryDy=0;entryPerimeter=0;fillColor=#dae8fc;strokeColor=#6c8ebf;" edge="1" parent="1" target="48Z_cEJcumHdOvQf_AqQ-145">
          <mxGeometry width="50" height="50" relative="1" as="geometry">
            <mxPoint x="1093" y="2040" as="sourcePoint" />
            <mxPoint x="1090" y="2070" as="targetPoint" />
          </mxGeometry>
        </mxCell>
        <mxCell id="48Z_cEJcumHdOvQf_AqQ-150" value="d" style="ellipse;whiteSpace=wrap;html=1;aspect=fixed;fillColor=#dae8fc;strokeColor=#6c8ebf;" vertex="1" parent="1">
          <mxGeometry x="1055" y="2030" width="50" height="50" as="geometry" />
        </mxCell>
        <mxCell id="48Z_cEJcumHdOvQf_AqQ-151" value="" style="endArrow=none;html=1;rounded=0;exitX=0.75;exitY=0;exitDx=0;exitDy=0;entryX=0;entryY=1;entryDx=0;entryDy=0;fillColor=#dae8fc;strokeColor=#6c8ebf;" edge="1" parent="1" source="48Z_cEJcumHdOvQf_AqQ-146" target="48Z_cEJcumHdOvQf_AqQ-150">
          <mxGeometry width="50" height="50" relative="1" as="geometry">
            <mxPoint x="990" y="2060" as="sourcePoint" />
            <mxPoint x="1040" y="2010" as="targetPoint" />
          </mxGeometry>
        </mxCell>
        <mxCell id="48Z_cEJcumHdOvQf_AqQ-152" value="" style="endArrow=none;html=1;rounded=0;entryX=1;entryY=1;entryDx=0;entryDy=0;exitX=0.5;exitY=0;exitDx=0;exitDy=0;fillColor=#dae8fc;strokeColor=#6c8ebf;" edge="1" parent="1" source="48Z_cEJcumHdOvQf_AqQ-147" target="48Z_cEJcumHdOvQf_AqQ-150">
          <mxGeometry width="50" height="50" relative="1" as="geometry">
            <mxPoint x="990" y="2060" as="sourcePoint" />
            <mxPoint x="1040" y="2010" as="targetPoint" />
          </mxGeometry>
        </mxCell>
        <mxCell id="48Z_cEJcumHdOvQf_AqQ-153" value="" style="shape=requiredInterface;html=1;verticalLabelPosition=bottom;sketch=0;rotation=-5;direction=north;fillColor=#dae8fc;strokeColor=#6c8ebf;" vertex="1" parent="1">
          <mxGeometry x="1030.65" y="2095" width="24.35" height="15" as="geometry" />
        </mxCell>
        <mxCell id="48Z_cEJcumHdOvQf_AqQ-155" value="" style="shape=requiredInterface;html=1;verticalLabelPosition=bottom;sketch=0;direction=north;fillColor=#dae8fc;strokeColor=#6c8ebf;" vertex="1" parent="1">
          <mxGeometry x="1110" y="2095" width="30" height="10" as="geometry" />
        </mxCell>
        <mxCell id="48Z_cEJcumHdOvQf_AqQ-156" value="GIVES" style="rhombus;whiteSpace=wrap;html=1;fillColor=#dae8fc;strokeColor=#6c8ebf;" vertex="1" parent="1">
          <mxGeometry x="1200" y="1860" width="80" height="80" as="geometry" />
        </mxCell>
        <mxCell id="48Z_cEJcumHdOvQf_AqQ-157" value="" style="endArrow=none;html=1;rounded=0;exitX=0;exitY=1;exitDx=0;exitDy=0;fillColor=#dae8fc;strokeColor=#6c8ebf;" edge="1" parent="1" source="48Z_cEJcumHdOvQf_AqQ-55" target="48Z_cEJcumHdOvQf_AqQ-156">
          <mxGeometry width="50" height="50" relative="1" as="geometry">
            <mxPoint x="1620" y="1560" as="sourcePoint" />
            <mxPoint x="1310" y="1770" as="targetPoint" />
          </mxGeometry>
        </mxCell>
        <mxCell id="48Z_cEJcumHdOvQf_AqQ-158" value="" style="endArrow=none;html=1;rounded=0;exitX=1;exitY=0.5;exitDx=0;exitDy=0;entryX=0;entryY=0.5;entryDx=0;entryDy=0;fillColor=#dae8fc;strokeColor=#6c8ebf;" edge="1" parent="1" source="48Z_cEJcumHdOvQf_AqQ-145" target="48Z_cEJcumHdOvQf_AqQ-156">
          <mxGeometry width="50" height="50" relative="1" as="geometry">
            <mxPoint x="1260" y="1820" as="sourcePoint" />
            <mxPoint x="1310" y="1770" as="targetPoint" />
          </mxGeometry>
        </mxCell>
        <mxCell id="48Z_cEJcumHdOvQf_AqQ-159" value="BELONGS_TO" style="rhombus;whiteSpace=wrap;html=1;fillColor=#dae8fc;strokeColor=#6c8ebf;" vertex="1" parent="1">
          <mxGeometry x="720" y="1770" width="100" height="80" as="geometry" />
        </mxCell>
        <mxCell id="48Z_cEJcumHdOvQf_AqQ-160" value="" style="endArrow=none;html=1;rounded=0;exitX=1;exitY=0;exitDx=0;exitDy=0;entryX=0;entryY=0.5;entryDx=0;entryDy=0;fillColor=#dae8fc;strokeColor=#6c8ebf;" edge="1" parent="1" source="48Z_cEJcumHdOvQf_AqQ-159" target="48Z_cEJcumHdOvQf_AqQ-52">
          <mxGeometry width="50" height="50" relative="1" as="geometry">
            <mxPoint x="1050" y="1900" as="sourcePoint" />
            <mxPoint x="1100" y="1850" as="targetPoint" />
            <Array as="points">
              <mxPoint x="870" y="1740" />
            </Array>
          </mxGeometry>
        </mxCell>
        <mxCell id="48Z_cEJcumHdOvQf_AqQ-161" value="" style="endArrow=none;html=1;rounded=0;exitX=0;exitY=1;exitDx=0;exitDy=0;entryX=0;entryY=0;entryDx=0;entryDy=0;fillColor=#dae8fc;strokeColor=#6c8ebf;" edge="1" parent="1" source="48Z_cEJcumHdOvQf_AqQ-159" target="48Z_cEJcumHdOvQf_AqQ-146">
          <mxGeometry width="50" height="50" relative="1" as="geometry">
            <mxPoint x="1050" y="1900" as="sourcePoint" />
            <mxPoint x="1100" y="1850" as="targetPoint" />
          </mxGeometry>
        </mxCell>
        <mxCell id="48Z_cEJcumHdOvQf_AqQ-162" value="" style="endArrow=none;html=1;rounded=0;exitX=0.25;exitY=0;exitDx=0;exitDy=0;fillColor=#dae8fc;strokeColor=#6c8ebf;" edge="1" parent="1" source="48Z_cEJcumHdOvQf_AqQ-146" target="48Z_cEJcumHdOvQf_AqQ-159">
          <mxGeometry width="50" height="50" relative="1" as="geometry">
            <mxPoint x="950" y="2150" as="sourcePoint" />
            <mxPoint x="1100" y="1850" as="targetPoint" />
          </mxGeometry>
        </mxCell>
        <mxCell id="48Z_cEJcumHdOvQf_AqQ-163" value="HAS" style="rhombus;whiteSpace=wrap;html=1;fillColor=#dae8fc;strokeColor=#6c8ebf;" vertex="1" parent="1">
          <mxGeometry x="1500" y="2150" width="80" height="80" as="geometry" />
        </mxCell>
        <mxCell id="48Z_cEJcumHdOvQf_AqQ-164" value="" style="endArrow=none;html=1;rounded=0;exitX=0.999;exitY=0.59;exitDx=0;exitDy=0;entryX=0.123;entryY=0.604;entryDx=0;entryDy=0;entryPerimeter=0;exitPerimeter=0;fillColor=#dae8fc;strokeColor=#6c8ebf;" edge="1" parent="1" source="48Z_cEJcumHdOvQf_AqQ-147" target="48Z_cEJcumHdOvQf_AqQ-163">
          <mxGeometry width="50" height="50" relative="1" as="geometry">
            <mxPoint x="1510" y="2240" as="sourcePoint" />
            <mxPoint x="1560" y="2190" as="targetPoint" />
          </mxGeometry>
        </mxCell>
        <mxCell id="48Z_cEJcumHdOvQf_AqQ-165" value="" style="endArrow=none;html=1;rounded=0;exitX=1;exitY=0.25;exitDx=0;exitDy=0;entryX=0.123;entryY=0.336;entryDx=0;entryDy=0;entryPerimeter=0;fillColor=#dae8fc;strokeColor=#6c8ebf;" edge="1" parent="1" source="48Z_cEJcumHdOvQf_AqQ-147" target="48Z_cEJcumHdOvQf_AqQ-163">
          <mxGeometry width="50" height="50" relative="1" as="geometry">
            <mxPoint x="1510" y="2240" as="sourcePoint" />
            <mxPoint x="1560" y="2190" as="targetPoint" />
          </mxGeometry>
        </mxCell>
        <mxCell id="48Z_cEJcumHdOvQf_AqQ-166" value="" style="endArrow=none;html=1;rounded=0;entryX=0;entryY=1;entryDx=0;entryDy=0;fillColor=#dae8fc;strokeColor=#6c8ebf;" edge="1" parent="1" source="48Z_cEJcumHdOvQf_AqQ-163" target="48Z_cEJcumHdOvQf_AqQ-123">
          <mxGeometry width="50" height="50" relative="1" as="geometry">
            <mxPoint x="1680" y="2090" as="sourcePoint" />
            <mxPoint x="1730" y="2040" as="targetPoint" />
          </mxGeometry>
        </mxCell>
        <mxCell id="48Z_cEJcumHdOvQf_AqQ-167" value="" style="endArrow=none;html=1;rounded=0;entryX=1;entryY=0.75;entryDx=0;entryDy=0;exitX=0;exitY=0;exitDx=0;exitDy=0;fillColor=#dae8fc;strokeColor=#6c8ebf;" edge="1" parent="1" source="48Z_cEJcumHdOvQf_AqQ-169" target="48Z_cEJcumHdOvQf_AqQ-55">
          <mxGeometry width="50" height="50" relative="1" as="geometry">
            <mxPoint x="2170" y="1670" as="sourcePoint" />
            <mxPoint x="1900" y="1750" as="targetPoint" />
          </mxGeometry>
        </mxCell>
        <mxCell id="48Z_cEJcumHdOvQf_AqQ-169" value="OWNS" style="shape=rhombus;double=1;perimeter=rhombusPerimeter;whiteSpace=wrap;html=1;align=center;fillColor=#dae8fc;strokeColor=#6c8ebf;" vertex="1" parent="1">
          <mxGeometry x="2000" y="1710" width="120" height="60" as="geometry" />
        </mxCell>
        <mxCell id="48Z_cEJcumHdOvQf_AqQ-170" value="CART" style="shape=ext;margin=3;double=1;whiteSpace=wrap;html=1;align=center;fillColor=#f8cecc;strokeColor=#b85450;" vertex="1" parent="1">
          <mxGeometry x="2100" y="1820" width="100" height="40" as="geometry" />
        </mxCell>
        <mxCell id="48Z_cEJcumHdOvQf_AqQ-171" value="" style="endArrow=none;html=1;rounded=0;entryX=1;entryY=1;entryDx=0;entryDy=0;exitX=0.5;exitY=0;exitDx=0;exitDy=0;fillColor=#dae8fc;strokeColor=#6c8ebf;" edge="1" parent="1" source="48Z_cEJcumHdOvQf_AqQ-170" target="48Z_cEJcumHdOvQf_AqQ-169">
          <mxGeometry width="50" height="50" relative="1" as="geometry">
            <mxPoint x="2190" y="1790" as="sourcePoint" />
            <mxPoint x="2240" y="1740" as="targetPoint" />
          </mxGeometry>
        </mxCell>
        <mxCell id="48Z_cEJcumHdOvQf_AqQ-172" value="CART_ITEM" style="shape=ext;margin=3;double=1;whiteSpace=wrap;html=1;align=center;fillColor=#dae8fc;strokeColor=#6c8ebf;" vertex="1" parent="1">
          <mxGeometry x="2310" y="2035" width="100" height="40" as="geometry" />
        </mxCell>
        <mxCell id="48Z_cEJcumHdOvQf_AqQ-173" value="HAS" style="rhombus;whiteSpace=wrap;html=1;fillColor=#dae8fc;strokeColor=#6c8ebf;" vertex="1" parent="1">
          <mxGeometry x="2210" y="1910" width="80" height="60" as="geometry" />
        </mxCell>
        <mxCell id="48Z_cEJcumHdOvQf_AqQ-174" value="" style="endArrow=none;html=1;rounded=0;entryX=0.5;entryY=1;entryDx=0;entryDy=0;exitX=0;exitY=0;exitDx=0;exitDy=0;" edge="1" parent="1" source="48Z_cEJcumHdOvQf_AqQ-173" target="48Z_cEJcumHdOvQf_AqQ-170">
          <mxGeometry width="50" height="50" relative="1" as="geometry">
            <mxPoint x="2100" y="1910" as="sourcePoint" />
            <mxPoint x="2150" y="1860" as="targetPoint" />
          </mxGeometry>
        </mxCell>
        <mxCell id="48Z_cEJcumHdOvQf_AqQ-175" value="" style="endArrow=none;html=1;rounded=0;entryX=1;entryY=1;entryDx=0;entryDy=0;exitX=0.5;exitY=0;exitDx=0;exitDy=0;" edge="1" parent="1" source="48Z_cEJcumHdOvQf_AqQ-172" target="48Z_cEJcumHdOvQf_AqQ-173">
          <mxGeometry width="50" height="50" relative="1" as="geometry">
            <mxPoint x="2100" y="1910" as="sourcePoint" />
            <mxPoint x="2150" y="1860" as="targetPoint" />
          </mxGeometry>
        </mxCell>
        <mxCell id="48Z_cEJcumHdOvQf_AqQ-176" value="BELONGS_&lt;div&gt;TO&lt;/div&gt;" style="rhombus;whiteSpace=wrap;html=1;fillColor=#dae8fc;strokeColor=#6c8ebf;" vertex="1" parent="1">
          <mxGeometry x="2040" y="1990" width="80" height="80" as="geometry" />
        </mxCell>
        <mxCell id="48Z_cEJcumHdOvQf_AqQ-177" value="" style="endArrow=none;html=1;rounded=0;exitX=1;exitY=0.5;exitDx=0;exitDy=0;entryX=0;entryY=0.5;entryDx=0;entryDy=0;" edge="1" parent="1" source="48Z_cEJcumHdOvQf_AqQ-123" target="48Z_cEJcumHdOvQf_AqQ-176">
          <mxGeometry width="50" height="50" relative="1" as="geometry">
            <mxPoint x="2090" y="1990" as="sourcePoint" />
            <mxPoint x="2140" y="1940" as="targetPoint" />
          </mxGeometry>
        </mxCell>
        <mxCell id="48Z_cEJcumHdOvQf_AqQ-178" value="" style="endArrow=none;html=1;rounded=0;entryX=0;entryY=0.25;entryDx=0;entryDy=0;exitX=0.813;exitY=0.338;exitDx=0;exitDy=0;exitPerimeter=0;" edge="1" parent="1" source="48Z_cEJcumHdOvQf_AqQ-176" target="48Z_cEJcumHdOvQf_AqQ-172">
          <mxGeometry width="50" height="50" relative="1" as="geometry">
            <mxPoint x="2090" y="1990" as="sourcePoint" />
            <mxPoint x="2140" y="1940" as="targetPoint" />
          </mxGeometry>
        </mxCell>
        <mxCell id="48Z_cEJcumHdOvQf_AqQ-179" value="" style="endArrow=none;html=1;rounded=0;entryX=0;entryY=0.75;entryDx=0;entryDy=0;exitX=0.889;exitY=0.63;exitDx=0;exitDy=0;exitPerimeter=0;" edge="1" parent="1" source="48Z_cEJcumHdOvQf_AqQ-176" target="48Z_cEJcumHdOvQf_AqQ-172">
          <mxGeometry width="50" height="50" relative="1" as="geometry">
            <mxPoint x="2170" y="2065" as="sourcePoint" />
            <mxPoint x="2140" y="1940" as="targetPoint" />
          </mxGeometry>
        </mxCell>
        <mxCell id="48Z_cEJcumHdOvQf_AqQ-180" value="" style="endArrow=none;html=1;rounded=0;" edge="1" parent="1">
          <mxGeometry width="50" height="50" relative="1" as="geometry">
            <mxPoint x="2170" y="1650" as="sourcePoint" />
            <mxPoint x="1720" y="1540" as="targetPoint" />
          </mxGeometry>
        </mxCell>
        <mxCell id="48Z_cEJcumHdOvQf_AqQ-181" value="Places" style="shape=rhombus;double=1;perimeter=rhombusPerimeter;whiteSpace=wrap;html=1;align=center;fillColor=#dae8fc;strokeColor=#6c8ebf;" vertex="1" parent="1">
          <mxGeometry x="2140" y="1630" width="120" height="60" as="geometry" />
        </mxCell>
        <mxCell id="48Z_cEJcumHdOvQf_AqQ-182" value="ORDER" style="shape=ext;margin=3;double=1;whiteSpace=wrap;html=1;align=center;fillColor=#dae8fc;strokeColor=#6c8ebf;" vertex="1" parent="1">
          <mxGeometry x="2520" y="1880" width="100" height="40" as="geometry" />
        </mxCell>
        <mxCell id="48Z_cEJcumHdOvQf_AqQ-183" value="" style="endArrow=none;html=1;rounded=0;exitX=1;exitY=1;exitDx=0;exitDy=0;entryX=0.25;entryY=0;entryDx=0;entryDy=0;" edge="1" parent="1" source="48Z_cEJcumHdOvQf_AqQ-181" target="48Z_cEJcumHdOvQf_AqQ-182">
          <mxGeometry width="50" height="50" relative="1" as="geometry">
            <mxPoint x="2210" y="2000" as="sourcePoint" />
            <mxPoint x="2260" y="1950" as="targetPoint" />
          </mxGeometry>
        </mxCell>
        <mxCell id="48Z_cEJcumHdOvQf_AqQ-184" value="CONTAINS" style="shape=rhombus;double=1;perimeter=rhombusPerimeter;whiteSpace=wrap;html=1;align=center;fillColor=#dae8fc;strokeColor=#6c8ebf;" vertex="1" parent="1">
          <mxGeometry x="2330" y="2190" width="120" height="60" as="geometry" />
        </mxCell>
        <mxCell id="48Z_cEJcumHdOvQf_AqQ-185" value="" style="endArrow=none;html=1;rounded=0;entryX=0.5;entryY=1;entryDx=0;entryDy=0;exitX=0.5;exitY=0;exitDx=0;exitDy=0;" edge="1" parent="1" source="48Z_cEJcumHdOvQf_AqQ-184" target="48Z_cEJcumHdOvQf_AqQ-182">
          <mxGeometry width="50" height="50" relative="1" as="geometry">
            <mxPoint x="2210" y="2000" as="sourcePoint" />
            <mxPoint x="2260" y="1950" as="targetPoint" />
          </mxGeometry>
        </mxCell>
        <mxCell id="48Z_cEJcumHdOvQf_AqQ-186" value="" style="endArrow=none;html=1;rounded=0;exitX=0.75;exitY=1;exitDx=0;exitDy=0;entryX=0;entryY=0.5;entryDx=0;entryDy=0;" edge="1" parent="1" source="48Z_cEJcumHdOvQf_AqQ-123" target="48Z_cEJcumHdOvQf_AqQ-184">
          <mxGeometry width="50" height="50" relative="1" as="geometry">
            <mxPoint x="2210" y="2000" as="sourcePoint" />
            <mxPoint x="2260" y="1950" as="targetPoint" />
          </mxGeometry>
        </mxCell>
        <mxCell id="48Z_cEJcumHdOvQf_AqQ-187" value="" style="endArrow=none;html=1;rounded=0;exitX=0.411;exitY=0.046;exitDx=0;exitDy=0;exitPerimeter=0;entryX=0.831;entryY=0.698;entryDx=0;entryDy=0;entryPerimeter=0;" edge="1" parent="1" source="48Z_cEJcumHdOvQf_AqQ-182" target="48Z_cEJcumHdOvQf_AqQ-181">
          <mxGeometry width="50" height="50" relative="1" as="geometry">
            <mxPoint x="2560" y="1870" as="sourcePoint" />
            <mxPoint x="2240" y="1660" as="targetPoint" />
          </mxGeometry>
        </mxCell>
        <mxCell id="48Z_cEJcumHdOvQf_AqQ-188" value="" style="endArrow=none;html=1;rounded=0;entryX=0.75;entryY=1;entryDx=0;entryDy=0;exitX=0.692;exitY=0.226;exitDx=0;exitDy=0;exitPerimeter=0;" edge="1" parent="1" source="48Z_cEJcumHdOvQf_AqQ-184" target="48Z_cEJcumHdOvQf_AqQ-182">
          <mxGeometry width="50" height="50" relative="1" as="geometry">
            <mxPoint x="2350" y="2070" as="sourcePoint" />
            <mxPoint x="2400" y="2020" as="targetPoint" />
          </mxGeometry>
        </mxCell>
        <mxCell id="48Z_cEJcumHdOvQf_AqQ-189" value="PAID_BY" style="rhombus;whiteSpace=wrap;html=1;fillColor=#dae8fc;strokeColor=#6c8ebf;" vertex="1" parent="1">
          <mxGeometry x="2390" y="1305" width="80" height="80" as="geometry" />
        </mxCell>
        <mxCell id="48Z_cEJcumHdOvQf_AqQ-190" value="" style="endArrow=none;html=1;rounded=0;entryX=0.5;entryY=1;entryDx=0;entryDy=0;exitX=0.5;exitY=0;exitDx=0;exitDy=0;" edge="1" parent="1" source="48Z_cEJcumHdOvQf_AqQ-182" target="48Z_cEJcumHdOvQf_AqQ-189">
          <mxGeometry width="50" height="50" relative="1" as="geometry">
            <mxPoint x="2270" y="1690" as="sourcePoint" />
            <mxPoint x="2320" y="1640" as="targetPoint" />
          </mxGeometry>
        </mxCell>
        <mxCell id="48Z_cEJcumHdOvQf_AqQ-191" value="" style="endArrow=none;html=1;rounded=0;exitX=0.654;exitY=0.046;exitDx=0;exitDy=0;exitPerimeter=0;" edge="1" parent="1" source="48Z_cEJcumHdOvQf_AqQ-182" target="48Z_cEJcumHdOvQf_AqQ-189">
          <mxGeometry width="50" height="50" relative="1" as="geometry">
            <mxPoint x="2270" y="1690" as="sourcePoint" />
            <mxPoint x="2520" y="1420" as="targetPoint" />
          </mxGeometry>
        </mxCell>
        <mxCell id="48Z_cEJcumHdOvQf_AqQ-192" value="" style="endArrow=none;html=1;rounded=0;entryX=1;entryY=0.75;entryDx=0;entryDy=0;exitX=0;exitY=0;exitDx=0;exitDy=0;" edge="1" parent="1" source="48Z_cEJcumHdOvQf_AqQ-189" target="48Z_cEJcumHdOvQf_AqQ-78">
          <mxGeometry width="50" height="50" relative="1" as="geometry">
            <mxPoint x="2270" y="1690" as="sourcePoint" />
            <mxPoint x="2320" y="1640" as="targetPoint" />
          </mxGeometry>
        </mxCell>
        <mxCell id="48Z_cEJcumHdOvQf_AqQ-194" value="BELONGS_&lt;div&gt;TO&lt;/div&gt;" style="rhombus;whiteSpace=wrap;html=1;fillColor=#dae8fc;strokeColor=#6c8ebf;" vertex="1" parent="1">
          <mxGeometry x="2320" y="1830" width="80" height="80" as="geometry" />
        </mxCell>
        <mxCell id="48Z_cEJcumHdOvQf_AqQ-195" value="" style="endArrow=none;html=1;rounded=0;entryX=0;entryY=0.5;entryDx=0;entryDy=0;exitX=1;exitY=0.5;exitDx=0;exitDy=0;" edge="1" parent="1" source="48Z_cEJcumHdOvQf_AqQ-170" target="48Z_cEJcumHdOvQf_AqQ-194">
          <mxGeometry width="50" height="50" relative="1" as="geometry">
            <mxPoint x="2180" y="1800" as="sourcePoint" />
            <mxPoint x="2230" y="1750" as="targetPoint" />
          </mxGeometry>
        </mxCell>
        <mxCell id="48Z_cEJcumHdOvQf_AqQ-196" value="" style="endArrow=none;html=1;rounded=0;entryX=0;entryY=0.25;entryDx=0;entryDy=0;exitX=1;exitY=0;exitDx=0;exitDy=0;" edge="1" parent="1" source="48Z_cEJcumHdOvQf_AqQ-194" target="48Z_cEJcumHdOvQf_AqQ-182">
          <mxGeometry width="50" height="50" relative="1" as="geometry">
            <mxPoint x="2180" y="1800" as="sourcePoint" />
            <mxPoint x="2230" y="1750" as="targetPoint" />
          </mxGeometry>
        </mxCell>
        <mxCell id="48Z_cEJcumHdOvQf_AqQ-197" value="" style="endArrow=none;html=1;rounded=0;entryX=0;entryY=0.75;entryDx=0;entryDy=0;exitX=0.939;exitY=0.577;exitDx=0;exitDy=0;exitPerimeter=0;" edge="1" parent="1" source="48Z_cEJcumHdOvQf_AqQ-194" target="48Z_cEJcumHdOvQf_AqQ-182">
          <mxGeometry width="50" height="50" relative="1" as="geometry">
            <mxPoint x="2390" y="1870" as="sourcePoint" />
            <mxPoint x="2230" y="1750" as="targetPoint" />
          </mxGeometry>
        </mxCell>
        <mxCell id="48Z_cEJcumHdOvQf_AqQ-199" value="HAS" style="shape=rhombus;double=1;perimeter=rhombusPerimeter;whiteSpace=wrap;html=1;align=center;fillColor=#dae8fc;strokeColor=#6c8ebf;" vertex="1" parent="1">
          <mxGeometry x="2710" y="2040" width="120" height="60" as="geometry" />
        </mxCell>
        <mxCell id="48Z_cEJcumHdOvQf_AqQ-200" value="" style="endArrow=none;html=1;rounded=0;entryX=1;entryY=1;entryDx=0;entryDy=0;exitX=0.5;exitY=0;exitDx=0;exitDy=0;" edge="1" parent="1" source="48Z_cEJcumHdOvQf_AqQ-199" target="48Z_cEJcumHdOvQf_AqQ-182">
          <mxGeometry width="50" height="50" relative="1" as="geometry">
            <mxPoint x="2550" y="2100" as="sourcePoint" />
            <mxPoint x="2600" y="2050" as="targetPoint" />
          </mxGeometry>
        </mxCell>
        <mxCell id="48Z_cEJcumHdOvQf_AqQ-201" value="" style="endArrow=none;html=1;rounded=0;entryX=0.5;entryY=1;entryDx=0;entryDy=0;" edge="1" parent="1" target="48Z_cEJcumHdOvQf_AqQ-199">
          <mxGeometry width="50" height="50" relative="1" as="geometry">
            <mxPoint x="2770" y="2240" as="sourcePoint" />
            <mxPoint x="2720" y="2130" as="targetPoint" />
          </mxGeometry>
        </mxCell>
        <mxCell id="48Z_cEJcumHdOvQf_AqQ-202" value="SHIPMENT" style="shape=ext;margin=3;double=1;whiteSpace=wrap;html=1;align=center;fillColor=#dae8fc;strokeColor=#6c8ebf;" vertex="1" parent="1">
          <mxGeometry x="2720" y="2240" width="100" height="40" as="geometry" />
        </mxCell>
        <mxCell id="48Z_cEJcumHdOvQf_AqQ-203" value="" style="endArrow=none;html=1;rounded=0;exitX=1;exitY=0.5;exitDx=0;exitDy=0;" edge="1" parent="1" source="48Z_cEJcumHdOvQf_AqQ-202">
          <mxGeometry width="50" height="50" relative="1" as="geometry">
            <mxPoint x="2680" y="2220" as="sourcePoint" />
            <mxPoint x="2940" y="2260" as="targetPoint" />
          </mxGeometry>
        </mxCell>
        <mxCell id="48Z_cEJcumHdOvQf_AqQ-204" value="" style="ellipse;whiteSpace=wrap;html=1;aspect=fixed;fillColor=#f8cecc;strokeColor=#b85450;" vertex="1" parent="1">
          <mxGeometry x="2940" y="2242.5" width="35" height="35" as="geometry" />
        </mxCell>
        <mxCell id="48Z_cEJcumHdOvQf_AqQ-205" value="STANDART" style="rounded=0;whiteSpace=wrap;html=1;fillColor=#dae8fc;strokeColor=#6c8ebf;" vertex="1" parent="1">
          <mxGeometry x="3080" y="2120" width="120" height="40" as="geometry" />
        </mxCell>
        <mxCell id="48Z_cEJcumHdOvQf_AqQ-206" value="EXPRESS" style="rounded=0;whiteSpace=wrap;html=1;fillColor=#dae8fc;strokeColor=#6c8ebf;" vertex="1" parent="1">
          <mxGeometry x="3080" y="2190" width="120" height="40" as="geometry" />
        </mxCell>
        <mxCell id="48Z_cEJcumHdOvQf_AqQ-207" value="INTERNATIONAL" style="rounded=0;whiteSpace=wrap;html=1;fillColor=#dae8fc;strokeColor=#6c8ebf;" vertex="1" parent="1">
          <mxGeometry x="3080" y="2360" width="120" height="40" as="geometry" />
        </mxCell>
        <mxCell id="48Z_cEJcumHdOvQf_AqQ-208" value="" style="endArrow=none;html=1;rounded=0;entryX=0;entryY=0.5;entryDx=0;entryDy=0;exitX=1;exitY=0;exitDx=0;exitDy=0;" edge="1" parent="1" source="48Z_cEJcumHdOvQf_AqQ-204" target="48Z_cEJcumHdOvQf_AqQ-205">
          <mxGeometry width="50" height="50" relative="1" as="geometry">
            <mxPoint x="2800" y="2280" as="sourcePoint" />
            <mxPoint x="2850" y="2230" as="targetPoint" />
          </mxGeometry>
        </mxCell>
        <mxCell id="48Z_cEJcumHdOvQf_AqQ-209" value="" style="endArrow=none;html=1;rounded=0;entryX=0;entryY=0.5;entryDx=0;entryDy=0;exitX=1;exitY=0.5;exitDx=0;exitDy=0;" edge="1" parent="1" source="48Z_cEJcumHdOvQf_AqQ-204" target="48Z_cEJcumHdOvQf_AqQ-206">
          <mxGeometry width="50" height="50" relative="1" as="geometry">
            <mxPoint x="2800" y="2280" as="sourcePoint" />
            <mxPoint x="2850" y="2230" as="targetPoint" />
          </mxGeometry>
        </mxCell>
        <mxCell id="48Z_cEJcumHdOvQf_AqQ-210" value="" style="endArrow=none;html=1;rounded=0;entryX=0;entryY=0.5;entryDx=0;entryDy=0;exitX=1;exitY=1;exitDx=0;exitDy=0;" edge="1" parent="1" source="48Z_cEJcumHdOvQf_AqQ-204" target="48Z_cEJcumHdOvQf_AqQ-207">
          <mxGeometry width="50" height="50" relative="1" as="geometry">
            <mxPoint x="2800" y="2280" as="sourcePoint" />
            <mxPoint x="2850" y="2230" as="targetPoint" />
          </mxGeometry>
        </mxCell>
        <mxCell id="48Z_cEJcumHdOvQf_AqQ-211" value="" style="endArrow=none;html=1;rounded=0;entryX=0.334;entryY=1.004;entryDx=0;entryDy=0;entryPerimeter=0;" edge="1" parent="1" target="48Z_cEJcumHdOvQf_AqQ-202">
          <mxGeometry width="50" height="50" relative="1" as="geometry">
            <mxPoint x="2753" y="2410" as="sourcePoint" />
            <mxPoint x="2760" y="2360" as="targetPoint" />
          </mxGeometry>
        </mxCell>
        <mxCell id="48Z_cEJcumHdOvQf_AqQ-212" value="" style="endArrow=none;html=1;rounded=0;" edge="1" parent="1">
          <mxGeometry width="50" height="50" relative="1" as="geometry">
            <mxPoint x="2780" y="2410" as="sourcePoint" />
            <mxPoint x="2780" y="2280" as="targetPoint" />
          </mxGeometry>
        </mxCell>
        <mxCell id="48Z_cEJcumHdOvQf_AqQ-213" value="SHIPPED_BY" style="rhombus;whiteSpace=wrap;html=1;fillColor=#dae8fc;strokeColor=#6c8ebf;" vertex="1" parent="1">
          <mxGeometry x="2730" y="2390" width="80" height="80" as="geometry" />
        </mxCell>
        <mxCell id="48Z_cEJcumHdOvQf_AqQ-214" value="" style="endArrow=none;html=1;rounded=0;exitX=0.5;exitY=1;exitDx=0;exitDy=0;" edge="1" parent="1" source="48Z_cEJcumHdOvQf_AqQ-213">
          <mxGeometry width="50" height="50" relative="1" as="geometry">
            <mxPoint x="2770" y="2460" as="sourcePoint" />
            <mxPoint x="2770" y="2550" as="targetPoint" />
          </mxGeometry>
        </mxCell>
        <mxCell id="48Z_cEJcumHdOvQf_AqQ-215" value="CARRIER" style="rounded=0;whiteSpace=wrap;html=1;fillColor=#dae8fc;strokeColor=#6c8ebf;" vertex="1" parent="1">
          <mxGeometry x="2720" y="2550" width="100" height="50" as="geometry" />
        </mxCell>
        <mxCell id="48Z_cEJcumHdOvQf_AqQ-218" value="DISCOUNT" style="rounded=0;whiteSpace=wrap;html=1;fillColor=#dae8fc;strokeColor=#6c8ebf;" vertex="1" parent="1">
          <mxGeometry x="1620" y="2580" width="120" height="60" as="geometry" />
        </mxCell>
        <mxCell id="48Z_cEJcumHdOvQf_AqQ-219" value="" style="endArrow=none;html=1;rounded=0;entryX=0.25;entryY=1;entryDx=0;entryDy=0;" edge="1" parent="1" target="48Z_cEJcumHdOvQf_AqQ-123">
          <mxGeometry width="50" height="50" relative="1" as="geometry">
            <mxPoint x="1730" y="2260" as="sourcePoint" />
            <mxPoint x="1710" y="2330" as="targetPoint" />
          </mxGeometry>
        </mxCell>
        <mxCell id="48Z_cEJcumHdOvQf_AqQ-220" value="HAS" style="rhombus;whiteSpace=wrap;html=1;fillColor=#dae8fc;strokeColor=#6c8ebf;" vertex="1" parent="1">
          <mxGeometry x="1670" y="2240" width="80" height="80" as="geometry" />
        </mxCell>
        <mxCell id="48Z_cEJcumHdOvQf_AqQ-221" value="" style="endArrow=none;html=1;rounded=0;entryX=0.341;entryY=0.824;entryDx=0;entryDy=0;entryPerimeter=0;exitX=0.583;exitY=0;exitDx=0;exitDy=0;exitPerimeter=0;" edge="1" parent="1" source="48Z_cEJcumHdOvQf_AqQ-218" target="48Z_cEJcumHdOvQf_AqQ-220">
          <mxGeometry width="50" height="50" relative="1" as="geometry">
            <mxPoint x="1600" y="2438" as="sourcePoint" />
            <mxPoint x="1710" y="2330" as="targetPoint" />
          </mxGeometry>
        </mxCell>
        <mxCell id="48Z_cEJcumHdOvQf_AqQ-222" value="" style="endArrow=none;html=1;rounded=0;exitX=0.5;exitY=0;exitDx=0;exitDy=0;entryX=0;entryY=1;entryDx=0;entryDy=0;" edge="1" parent="1" source="48Z_cEJcumHdOvQf_AqQ-218" target="48Z_cEJcumHdOvQf_AqQ-220">
          <mxGeometry width="50" height="50" relative="1" as="geometry">
            <mxPoint x="1550" y="2410" as="sourcePoint" />
            <mxPoint x="1600" y="2360" as="targetPoint" />
          </mxGeometry>
        </mxCell>
        <mxCell id="48Z_cEJcumHdOvQf_AqQ-226" value="" style="endArrow=none;html=1;rounded=0;entryX=0.369;entryY=1.082;entryDx=0;entryDy=0;entryPerimeter=0;" edge="1" parent="1" target="48Z_cEJcumHdOvQf_AqQ-170">
          <mxGeometry width="50" height="50" relative="1" as="geometry">
            <mxPoint x="2160" y="2410" as="sourcePoint" />
            <mxPoint x="2100" y="2230" as="targetPoint" />
            <Array as="points">
              <mxPoint x="2180" y="2300" />
            </Array>
          </mxGeometry>
        </mxCell>
        <mxCell id="48Z_cEJcumHdOvQf_AqQ-227" value="HAS" style="rhombus;whiteSpace=wrap;html=1;fillColor=#dae8fc;strokeColor=#6c8ebf;" vertex="1" parent="1">
          <mxGeometry x="2120" y="2410" width="80" height="80" as="geometry" />
        </mxCell>
        <mxCell id="48Z_cEJcumHdOvQf_AqQ-228" value="" style="endArrow=none;html=1;rounded=0;exitX=1;exitY=0;exitDx=0;exitDy=0;entryX=0;entryY=0.5;entryDx=0;entryDy=0;" edge="1" parent="1" source="48Z_cEJcumHdOvQf_AqQ-218" target="48Z_cEJcumHdOvQf_AqQ-227">
          <mxGeometry width="50" height="50" relative="1" as="geometry">
            <mxPoint x="2050" y="2280" as="sourcePoint" />
            <mxPoint x="2100" y="2230" as="targetPoint" />
          </mxGeometry>
        </mxCell>
        <mxCell id="48Z_cEJcumHdOvQf_AqQ-229" value="HAS" style="rhombus;whiteSpace=wrap;html=1;fillColor=#dae8fc;strokeColor=#6c8ebf;" vertex="1" parent="1">
          <mxGeometry x="2780" y="1780" width="80" height="80" as="geometry" />
        </mxCell>
        <mxCell id="48Z_cEJcumHdOvQf_AqQ-230" value="" style="endArrow=none;html=1;rounded=0;exitX=1;exitY=0;exitDx=0;exitDy=0;entryX=0;entryY=0.5;entryDx=0;entryDy=0;" edge="1" parent="1" source="48Z_cEJcumHdOvQf_AqQ-182" target="48Z_cEJcumHdOvQf_AqQ-229">
          <mxGeometry width="50" height="50" relative="1" as="geometry">
            <mxPoint x="2790" y="1840" as="sourcePoint" />
            <mxPoint x="2840" y="1790" as="targetPoint" />
          </mxGeometry>
        </mxCell>
        <mxCell id="48Z_cEJcumHdOvQf_AqQ-231" value="" style="endArrow=none;html=1;rounded=0;" edge="1" parent="1">
          <mxGeometry width="50" height="50" relative="1" as="geometry">
            <mxPoint x="2830" y="1793" as="sourcePoint" />
            <mxPoint x="3000" y="1640" as="targetPoint" />
          </mxGeometry>
        </mxCell>
        <mxCell id="48Z_cEJcumHdOvQf_AqQ-232" value="" style="endArrow=none;html=1;rounded=0;exitX=0.823;exitY=0.341;exitDx=0;exitDy=0;exitPerimeter=0;entryX=0.5;entryY=1;entryDx=0;entryDy=0;" edge="1" parent="1" source="48Z_cEJcumHdOvQf_AqQ-229" target="48Z_cEJcumHdOvQf_AqQ-233">
          <mxGeometry width="50" height="50" relative="1" as="geometry">
            <mxPoint x="2850" y="1800" as="sourcePoint" />
            <mxPoint x="3020" y="1650" as="targetPoint" />
          </mxGeometry>
        </mxCell>
        <mxCell id="48Z_cEJcumHdOvQf_AqQ-233" value="ORDER_HISTORY" style="shape=ext;margin=3;double=1;whiteSpace=wrap;html=1;align=center;fillColor=#dae8fc;strokeColor=#6c8ebf;" vertex="1" parent="1">
          <mxGeometry x="2970" y="1600" width="110" height="40" as="geometry" />
        </mxCell>
        <mxCell id="48Z_cEJcumHdOvQf_AqQ-234" value="" style="endArrow=none;html=1;rounded=0;entryX=0.25;entryY=1;entryDx=0;entryDy=0;" edge="1" parent="1" target="48Z_cEJcumHdOvQf_AqQ-122">
          <mxGeometry width="50" height="50" relative="1" as="geometry">
            <mxPoint x="1380" y="2520" as="sourcePoint" />
            <mxPoint x="1440" y="2250" as="targetPoint" />
          </mxGeometry>
        </mxCell>
        <mxCell id="48Z_cEJcumHdOvQf_AqQ-235" value="HAS" style="rhombus;whiteSpace=wrap;html=1;fillColor=#dae8fc;strokeColor=#6c8ebf;" vertex="1" parent="1">
          <mxGeometry x="1340" y="2520" width="80" height="80" as="geometry" />
        </mxCell>
        <mxCell id="48Z_cEJcumHdOvQf_AqQ-236" value="" style="endArrow=none;html=1;rounded=0;entryX=0;entryY=0.5;entryDx=0;entryDy=0;exitX=1;exitY=0.5;exitDx=0;exitDy=0;" edge="1" parent="1" source="48Z_cEJcumHdOvQf_AqQ-235" target="48Z_cEJcumHdOvQf_AqQ-218">
          <mxGeometry width="50" height="50" relative="1" as="geometry">
            <mxPoint x="1390" y="2300" as="sourcePoint" />
            <mxPoint x="1440" y="2250" as="targetPoint" />
          </mxGeometry>
        </mxCell>
        <mxCell id="48Z_cEJcumHdOvQf_AqQ-237" value="" style="endArrow=none;html=1;rounded=0;exitX=0.5;exitY=1;exitDx=0;exitDy=0;" edge="1" parent="1" source="48Z_cEJcumHdOvQf_AqQ-218" target="48Z_cEJcumHdOvQf_AqQ-238">
          <mxGeometry width="50" height="50" relative="1" as="geometry">
            <mxPoint x="1660" y="2500" as="sourcePoint" />
            <mxPoint x="1680" y="2730" as="targetPoint" />
          </mxGeometry>
        </mxCell>
        <mxCell id="48Z_cEJcumHdOvQf_AqQ-238" value="O" style="ellipse;whiteSpace=wrap;html=1;aspect=fixed;fillColor=#dae8fc;strokeColor=#6c8ebf;" vertex="1" parent="1">
          <mxGeometry x="1660" y="2750" width="40" height="40" as="geometry" />
        </mxCell>
        <mxCell id="48Z_cEJcumHdOvQf_AqQ-239" value="STANDART" style="rounded=0;whiteSpace=wrap;html=1;fillColor=#dae8fc;strokeColor=#6c8ebf;" vertex="1" parent="1">
          <mxGeometry x="1520" y="2880" width="110" height="30" as="geometry" />
        </mxCell>
        <mxCell id="48Z_cEJcumHdOvQf_AqQ-240" value="CODES" style="rounded=0;whiteSpace=wrap;html=1;fillColor=#dae8fc;strokeColor=#6c8ebf;" vertex="1" parent="1">
          <mxGeometry x="1710" y="2880" width="120" height="30" as="geometry" />
        </mxCell>
        <mxCell id="48Z_cEJcumHdOvQf_AqQ-241" value="" style="endArrow=none;html=1;rounded=0;exitX=0.5;exitY=0;exitDx=0;exitDy=0;entryX=0;entryY=1;entryDx=0;entryDy=0;" edge="1" parent="1" source="48Z_cEJcumHdOvQf_AqQ-239" target="48Z_cEJcumHdOvQf_AqQ-238">
          <mxGeometry width="50" height="50" relative="1" as="geometry">
            <mxPoint x="1590" y="2730" as="sourcePoint" />
            <mxPoint x="1640" y="2680" as="targetPoint" />
          </mxGeometry>
        </mxCell>
        <mxCell id="48Z_cEJcumHdOvQf_AqQ-242" value="" style="endArrow=none;html=1;rounded=0;entryX=0.561;entryY=0.072;entryDx=0;entryDy=0;entryPerimeter=0;exitX=1;exitY=1;exitDx=0;exitDy=0;" edge="1" parent="1" source="48Z_cEJcumHdOvQf_AqQ-238" target="48Z_cEJcumHdOvQf_AqQ-240">
          <mxGeometry width="50" height="50" relative="1" as="geometry">
            <mxPoint x="1590" y="2730" as="sourcePoint" />
            <mxPoint x="1640" y="2680" as="targetPoint" />
          </mxGeometry>
        </mxCell>
        <mxCell id="48Z_cEJcumHdOvQf_AqQ-244" value="HISTORY" style="shape=ext;margin=3;double=1;whiteSpace=wrap;html=1;align=center;fillColor=#dae8fc;strokeColor=#6c8ebf;" vertex="1" parent="1">
          <mxGeometry x="1670" y="1830" width="100" height="40" as="geometry" />
        </mxCell>
        <mxCell id="48Z_cEJcumHdOvQf_AqQ-245" value="HAS" style="shape=rhombus;double=1;perimeter=rhombusPerimeter;whiteSpace=wrap;html=1;align=center;fillColor=#dae8fc;strokeColor=#6c8ebf;" vertex="1" parent="1">
          <mxGeometry x="1650" y="1700" width="120" height="60" as="geometry" />
        </mxCell>
        <mxCell id="48Z_cEJcumHdOvQf_AqQ-247" value="" style="endArrow=none;html=1;rounded=0;entryX=0.75;entryY=1;entryDx=0;entryDy=0;exitX=0.5;exitY=0;exitDx=0;exitDy=0;" edge="1" parent="1" source="48Z_cEJcumHdOvQf_AqQ-245" target="48Z_cEJcumHdOvQf_AqQ-55">
          <mxGeometry width="50" height="50" relative="1" as="geometry">
            <mxPoint x="1740" y="1860" as="sourcePoint" />
            <mxPoint x="1790" y="1810" as="targetPoint" />
          </mxGeometry>
        </mxCell>
        <mxCell id="48Z_cEJcumHdOvQf_AqQ-248" value="" style="endArrow=none;html=1;rounded=0;entryX=0.5;entryY=1;entryDx=0;entryDy=0;exitX=0.5;exitY=0;exitDx=0;exitDy=0;" edge="1" parent="1" source="48Z_cEJcumHdOvQf_AqQ-244" target="48Z_cEJcumHdOvQf_AqQ-245">
          <mxGeometry width="50" height="50" relative="1" as="geometry">
            <mxPoint x="1740" y="1860" as="sourcePoint" />
            <mxPoint x="1790" y="1810" as="targetPoint" />
          </mxGeometry>
        </mxCell>
        <mxCell id="48Z_cEJcumHdOvQf_AqQ-249" value="" style="endArrow=none;html=1;rounded=0;entryX=0;entryY=0;entryDx=0;entryDy=0;exitX=1;exitY=0.5;exitDx=0;exitDy=0;" edge="1" parent="1" source="48Z_cEJcumHdOvQf_AqQ-250" target="48Z_cEJcumHdOvQf_AqQ-123">
          <mxGeometry width="50" height="50" relative="1" as="geometry">
            <mxPoint x="1790" y="1930" as="sourcePoint" />
            <mxPoint x="1790" y="1810" as="targetPoint" />
          </mxGeometry>
        </mxCell>
        <mxCell id="48Z_cEJcumHdOvQf_AqQ-250" value="SHOWS" style="rhombus;whiteSpace=wrap;html=1;fillColor=#dae8fc;strokeColor=#6c8ebf;" vertex="1" parent="1">
          <mxGeometry x="1700" y="1900" width="70" height="80" as="geometry" />
        </mxCell>
        <mxCell id="48Z_cEJcumHdOvQf_AqQ-251" value="" style="endArrow=none;html=1;rounded=0;entryX=0.5;entryY=0;entryDx=0;entryDy=0;exitX=0.5;exitY=1;exitDx=0;exitDy=0;" edge="1" parent="1" source="48Z_cEJcumHdOvQf_AqQ-244" target="48Z_cEJcumHdOvQf_AqQ-250">
          <mxGeometry width="50" height="50" relative="1" as="geometry">
            <mxPoint x="1740" y="1860" as="sourcePoint" />
            <mxPoint x="1790" y="1810" as="targetPoint" />
          </mxGeometry>
        </mxCell>
        <mxCell id="48Z_cEJcumHdOvQf_AqQ-252" value="" style="endArrow=none;html=1;rounded=0;entryX=0.5;entryY=1;entryDx=0;entryDy=0;" edge="1" parent="1" target="48Z_cEJcumHdOvQf_AqQ-215">
          <mxGeometry width="50" height="50" relative="1" as="geometry">
            <mxPoint x="2770" y="2680" as="sourcePoint" />
            <mxPoint x="2620" y="2680" as="targetPoint" />
          </mxGeometry>
        </mxCell>
        <mxCell id="48Z_cEJcumHdOvQf_AqQ-253" value="O" style="ellipse;whiteSpace=wrap;html=1;aspect=fixed;fillColor=#dae8fc;strokeColor=#6c8ebf;" vertex="1" parent="1">
          <mxGeometry x="2750" y="2680" width="40" height="40" as="geometry" />
        </mxCell>
        <mxCell id="48Z_cEJcumHdOvQf_AqQ-254" value="" style="endArrow=none;html=1;rounded=0;entryX=0;entryY=1;entryDx=0;entryDy=0;exitX=0.5;exitY=0;exitDx=0;exitDy=0;" edge="1" parent="1" source="48Z_cEJcumHdOvQf_AqQ-255" target="48Z_cEJcumHdOvQf_AqQ-253">
          <mxGeometry width="50" height="50" relative="1" as="geometry">
            <mxPoint x="2640" y="2760" as="sourcePoint" />
            <mxPoint x="2690" y="2700" as="targetPoint" />
          </mxGeometry>
        </mxCell>
        <mxCell id="48Z_cEJcumHdOvQf_AqQ-255" value="NATIONAL" style="rounded=0;whiteSpace=wrap;html=1;fillColor=#f8cecc;strokeColor=#b85450;" vertex="1" parent="1">
          <mxGeometry x="2610" y="2760" width="80" height="40" as="geometry" />
        </mxCell>
        <mxCell id="48Z_cEJcumHdOvQf_AqQ-256" value="INTERNATIONAL" style="rounded=0;whiteSpace=wrap;html=1;fillColor=#f8cecc;strokeColor=#b85450;" vertex="1" parent="1">
          <mxGeometry x="2810" y="2760" width="90" height="40" as="geometry" />
        </mxCell>
        <mxCell id="48Z_cEJcumHdOvQf_AqQ-259" value="" style="endArrow=none;html=1;rounded=0;entryX=0.5;entryY=0;entryDx=0;entryDy=0;exitX=1;exitY=1;exitDx=0;exitDy=0;" edge="1" parent="1" source="48Z_cEJcumHdOvQf_AqQ-253" target="48Z_cEJcumHdOvQf_AqQ-256">
          <mxGeometry width="50" height="50" relative="1" as="geometry">
            <mxPoint x="2640" y="2750" as="sourcePoint" />
            <mxPoint x="2690" y="2700" as="targetPoint" />
          </mxGeometry>
        </mxCell>
      </root>
    </mxGraphModel>
  </diagram>
</mxfile>
